<svg aria-hidden="true" style="position: absolute; width: 0; height: 0; overflow: hidden;" version="1.1" xmlns="http://www.w3.org/2000/svg" xmlns:xlink="http://www.w3.org/1999/xlink">
<defs>
<symbol id="icon-strategic" viewBox="0 0 20 32">
<path stroke-linejoin="round" stroke-linecap="round" stroke-miterlimit="4" stroke-width="1.9692" d="M14.523 18.954c0.295-1.477 1.034-2.511 2.215-3.692 1.477-1.329 2.215-3.249 2.215-5.169 0-2.35-0.934-4.604-2.596-6.266s-3.916-2.595-6.266-2.595-4.604 0.934-6.266 2.595c-1.662 1.662-2.595 3.916-2.595 6.266 0 1.477 0.295 3.249 2.215 5.169 1.034 1.034 1.92 2.215 2.215 3.692M5.662 24.862h8.862M7.138 30.769h5.908"></path>
</symbol>
<symbol id="icon-powerup" viewBox="0 0 32 32">
<path stroke-linejoin="round" stroke-linecap="round" stroke-miterlimit="4" stroke-width="1.9692" d="M18.954 8.615l4.431 4.431M5.662 7.138v5.908M26.338 18.954v5.908M13.046 1.231v2.954M8.615 10.092h-5.908M29.292 21.908h-5.908M14.523 2.708h-2.954M30.238 3.653l-1.89-1.89c-0.166-0.168-0.364-0.301-0.582-0.392s-0.452-0.138-0.688-0.138c-0.236 0-0.47 0.047-0.688 0.138s-0.416 0.224-0.582 0.392l-24.044 24.044c-0.168 0.166-0.301 0.364-0.392 0.582s-0.138 0.452-0.138 0.688 0.047 0.47 0.138 0.688c0.091 0.218 0.224 0.416 0.392 0.582l1.89 1.89c0.165 0.17 0.363 0.305 0.581 0.397s0.453 0.14 0.689 0.14c0.237 0 0.471-0.047 0.689-0.14s0.416-0.227 0.581-0.397l24.044-24.044c0.17-0.165 0.305-0.363 0.397-0.581s0.14-0.453 0.14-0.689-0.047-0.471-0.14-0.689c-0.092-0.218-0.227-0.416-0.397-0.581z"></path>
</symbol>
<symbol id="icon-adventure" viewBox="0 0 33 32">
<path stroke-linejoin="round" stroke-linecap="round" stroke-miterlimit="4" stroke-width="2.2069" d="M21.241 5.678c-0.514 0-1.020-0.12-1.48-0.349l-6.972-3.486c-0.459-0.23-0.966-0.349-1.48-0.349M21.241 5.678c0.514 0 1.020-0.12 1.48-0.349l6.056-3.029c0.253-0.126 0.533-0.186 0.815-0.173s0.556 0.098 0.796 0.246c0.24 0.149 0.438 0.356 0.575 0.603s0.209 0.524 0.209 0.807v21.127c-0 0.307-0.086 0.608-0.247 0.87s-0.393 0.473-0.668 0.61l-7.536 3.769c-0.459 0.23-0.966 0.349-1.48 0.349M21.241 5.678v24.829M21.241 30.507c-0.514 0-1.020-0.119-1.48-0.349l-6.972-3.486c-0.459-0.23-0.966-0.349-1.48-0.349s-1.020 0.119-1.48 0.349l-6.056 3.029c-0.253 0.126-0.533 0.186-0.816 0.173s-0.556-0.098-0.796-0.247c-0.24-0.149-0.438-0.357-0.575-0.604s-0.209-0.525-0.208-0.807v-21.125c0-0.307 0.086-0.608 0.248-0.87s0.393-0.473 0.668-0.61l7.536-3.769c0.459-0.23 0.966-0.349 1.48-0.349M11.31 1.494v24.827"></path>
</symbol>
<symbol id="icon-puzzle" viewBox="0 0 33 32">
<path stroke-linejoin="round"  stroke-linecap="round" stroke-miterlimit="4" stroke-width="2.2069" d="M12.966 19.31v-9.931c0-0.439-0.174-0.86-0.485-1.17s-0.731-0.485-1.17-0.485h-8.276c-0.439 0-0.86 0.174-1.17 0.485s-0.485 0.731-0.485 1.17v9.931M12.966 19.31h-11.586M12.966 19.31v11.586M12.966 19.31h9.931c0.439 0 0.86 0.174 1.17 0.485s0.485 0.731 0.485 1.17v8.276c0 0.439-0.174 0.86-0.485 1.17s-0.731 0.485-1.17 0.485h-9.931M1.379 19.31v9.931c0 0.439 0.174 0.86 0.485 1.17s0.731 0.485 1.17 0.485h9.931M21.241 1.103h8.276c0.914 0 1.655 0.741 1.655 1.655v8.276c0 0.914-0.741 1.655-1.655 1.655h-8.276c-0.914 0-1.655-0.741-1.655-1.655v-8.276c0-0.914 0.741-1.655 1.655-1.655z"></path>
</symbol>
<symbol id="icon-bg-button" viewBox="0 0 81 32">
<path fill="#ffd039" style="fill: var(--color1, #ffd039)"  d="M80.542 26.479l-5.521 5.521h-74.75v-26.016l5.984-5.984h74.287v26.479z"></path>
<path d="M80.542 26.479l0.767 0.767 0.318-0.318v-0.449h-1.085zM75.021 32v1.085h0.45l0.318-0.318-0.767-0.767zM0.271 32h-1.085v1.085h1.085v-1.085zM0.271 5.984l-0.767-0.767-0.318 0.318v0.449h1.085zM6.255 0v-1.085h-0.449l-0.318 0.318 0.767 0.767zM80.542 0h1.085v-1.085h-1.085v1.085zM80.542 26.479l-0.767-0.767-5.521 5.521 1.534 1.534 5.521-5.521-0.767-0.767zM75.021 32v-1.085h-74.75v2.169h74.75v-1.085zM0.271 32h1.085v-26.016h-2.17v26.016h1.085zM0.271 5.984l0.767 0.767 5.984-5.984-1.534-1.534-5.984 5.984 0.767 0.767zM6.255 0v1.085h74.287v-2.17h-74.287v1.085zM80.542 0h-1.085v26.479h2.169v-26.479h-1.085z"></path>
</symbol>
<symbol id="icon-burger" viewBox="0 0 32 32">
<path stroke-linejoin="round" stroke-linecap="round" stroke-miterlimit="4" stroke-width="1.4545" d="M4 8.001h24M4 16.001h24M4 24.001h24"></path>
</symbol>
<symbol id="icon-stroke-for-img" viewBox="0 0 37 32">
<path d="M37.114 28.135l0.103 0.103 0.043-0.043v-0.061h-0.146zM33.249 32v0.146h0.060l0.043-0.043-0.103-0.103zM0 32h-0.146v0.146h0.146v-0.146zM0 3.884l-0.103-0.103-0.043 0.043v0.061h0.146zM3.884 0v-0.146h-0.061l-0.043 0.043 0.103 0.103zM37.114 0h0.146v-0.146h-0.146v0.146zM37.114 28.135l-0.103-0.103-3.865 3.865 0.207 0.207 3.865-3.865-0.103-0.103zM33.249 32v-0.146h-33.249v0.292h33.249v-0.146zM0 32h0.146v-28.116h-0.292v28.116h0.146zM0 3.884l0.103 0.103 3.884-3.884-0.207-0.207-3.884 3.884 0.103 0.103zM3.884 0v0.146h33.23v-0.292h-33.23v0.146zM37.114 0h-0.146v28.135h0.292v-28.135h-0.146z"></path>
</symbol>
<symbol id="icon-visual" viewBox="0 0 33 32">
<path stroke-linejoin="round" stroke-linecap="round" stroke-miterlimit="4" stroke-width="2" d="M28.25 2.5v6M31.25 5.5h-6M4.25 23.5v3M5.75 25h-3M13.155 21.25c-0.134-0.519-0.405-0.993-0.784-1.372s-0.853-0.65-1.372-0.784l-9.203-2.373c-0.157-0.045-0.295-0.139-0.394-0.269s-0.152-0.289-0.152-0.452 0.053-0.322 0.152-0.452c0.098-0.13 0.237-0.225 0.394-0.269l9.203-2.374c0.519-0.134 0.993-0.404 1.372-0.783s0.65-0.852 0.784-1.371l2.373-9.203c0.044-0.158 0.139-0.296 0.269-0.395s0.29-0.152 0.453-0.152c0.164 0 0.323 0.054 0.453 0.152s0.225 0.238 0.269 0.395l2.372 9.203c0.134 0.519 0.404 0.993 0.784 1.372s0.853 0.65 1.372 0.784l9.203 2.371c0.158 0.044 0.298 0.138 0.397 0.269s0.153 0.29 0.153 0.454c0 0.164-0.054 0.324-0.153 0.454s-0.239 0.225-0.397 0.269l-9.203 2.372c-0.519 0.134-0.993 0.404-1.372 0.784s-0.65 0.853-0.784 1.372l-2.373 9.203c-0.044 0.158-0.139 0.297-0.269 0.395s-0.29 0.152-0.453 0.152-0.323-0.054-0.453-0.152c-0.13-0.099-0.225-0.238-0.269-0.395l-2.371-9.203z"></path>
</symbol>
<symbol id="icon-challenge" viewBox="0 0 33 32">
<path stroke-linejoin="round" stroke-linecap="round" stroke-miterlimit="4" stroke-width="2" d="M7.25 11.5h-2.25c-0.995 0-1.948-0.395-2.652-1.098s-1.098-1.657-1.098-2.652c0-0.995 0.395-1.948 1.098-2.652s1.657-1.098 2.652-1.098h2.25M7.25 11.5v-10.5h18v10.5M7.25 11.5c0 2.387 0.948 4.676 2.636 6.364s3.977 2.636 6.364 2.636 4.676-0.948 6.364-2.636c1.688-1.688 2.636-3.977 2.636-6.364M25.25 11.5h2.25c0.995 0 1.948-0.395 2.652-1.098s1.098-1.657 1.098-2.652c0-0.995-0.395-1.948-1.098-2.652s-1.657-1.098-2.652-1.098h-2.25M4.25 31h24M13.25 19.99v3.51c0 0.825-0.705 1.47-1.455 1.815-1.77 0.81-3.045 3.045-3.045 5.685M19.25 19.99v3.51c0 0.825 0.705 1.47 1.455 1.815 1.77 0.81 3.045 3.045 3.045 5.685"></path>
</symbol>
</defs>
</svg>
