<svg width="508" height="438" viewBox="0 0 508 438" fill="none" xmlns="http://www.w3.org/2000/svg">
<mask id="path-1-inside-1_78_344" fill="white">
<path d="M508 385.1L455.1 438H0V53.165L53.165 0H508V385.1Z"/>
</mask>
<path d="M508 385.1L509.414 386.514L510 385.928V385.1H508ZM455.1 438V440H455.928L456.514 439.414L455.1 438ZM0 438H-2V440H0V438ZM0 53.165L-1.41421 51.7508L-2 52.3366V53.165H0ZM53.165 0V-2H52.3366L51.7508 -1.41421L53.165 0ZM508 0H510V-2H508V0ZM508 385.1L506.586 383.685L453.685 436.586L455.1 438L456.514 439.414L509.414 386.514L508 385.1ZM455.1 438V436H0V438V440H455.1V438ZM0 438H2V53.165H0H-2V438H0ZM0 53.165L1.41421 54.5793L54.5793 1.41421L53.165 0L51.7508 -1.41421L-1.41421 51.7508L0 53.165ZM53.165 0V2H508V0V-2H53.165V0ZM508 0H506V385.1H508H510V0H508Z" fill="#FFD039" mask="url(#path-1-inside-1_78_344)"/>
</svg>
